<svg width="47" height="46" viewBox="0 0 47 46" fill="none" xmlns="http://www.w3.org/2000/svg">
<path d="M38.3 29C38.0338 29.6032 37.9543 30.2724 38.072 30.9212C38.1896 31.57 38.4989 32.1686 38.96 32.64L39.08 32.76C39.4519 33.1315 39.7469 33.5726 39.9482 34.0582C40.1495 34.5438 40.2531 35.0643 40.2531 35.59C40.2531 36.1157 40.1495 36.6362 39.9482 37.1218C39.7469 37.6073 39.4519 38.0485 39.08 38.42C38.7085 38.7919 38.2673 39.0869 37.7817 39.2882C37.2962 39.4895 36.7756 39.5931 36.25 39.5931C35.7243 39.5931 35.2038 39.4895 34.7182 39.2882C34.2326 39.0869 33.7915 38.7919 33.42 38.42L33.3 38.3C32.8286 37.8389 32.23 37.5296 31.5812 37.412C30.9324 37.2943 30.2632 37.3738 29.66 37.64C29.0685 37.8935 28.564 38.3145 28.2086 38.8511C27.8533 39.3876 27.6626 40.0164 27.66 40.66V41C27.66 42.0609 27.2386 43.0783 26.4884 43.8284C25.7383 44.5786 24.7209 45 23.66 45C22.5991 45 21.5817 44.5786 20.8316 43.8284C20.0814 43.0783 19.66 42.0609 19.66 41V40.82C19.6445 40.158 19.4302 39.516 19.045 38.9774C18.6598 38.4388 18.1215 38.0286 17.5 37.8C16.8968 37.5338 16.2276 37.4543 15.5788 37.572C14.93 37.6896 14.3314 37.9989 13.86 38.46L13.74 38.58C13.3685 38.9519 12.9273 39.2469 12.4418 39.4482C11.9562 39.6495 11.4357 39.7531 10.91 39.7531C10.3843 39.7531 9.86383 39.6495 9.37824 39.4482C8.89264 39.2469 8.45149 38.9519 8.08 38.58C7.70809 38.2085 7.41306 37.7673 7.21176 37.2818C7.01046 36.7962 6.90685 36.2757 6.90685 35.75C6.90685 35.2243 7.01046 34.7038 7.21176 34.2182C7.41306 33.7326 7.70809 33.2915 8.08 32.92L8.2 32.8C8.66107 32.3286 8.97037 31.73 9.08801 31.0812C9.20564 30.4324 9.12623 29.7632 8.86 29.16C8.60647 28.5685 8.18551 28.064 7.64893 27.7086C7.11235 27.3533 6.48357 27.1626 5.84 27.16H5.5C4.43913 27.16 3.42172 26.7386 2.67157 25.9884C1.92143 25.2383 1.5 24.2209 1.5 23.16C1.5 22.0991 1.92143 21.0817 2.67157 20.3316C3.42172 19.5814 4.43913 19.16 5.5 19.16H5.68C6.34199 19.1445 6.98401 18.9302 7.5226 18.545C8.06118 18.1598 8.47143 17.6215 8.7 17C8.96623 16.3968 9.04564 15.7276 8.92801 15.0788C8.81037 14.43 8.50107 13.8314 8.04 13.36L7.92 13.24C7.54809 12.8685 7.25306 12.4274 7.05176 11.9418C6.85046 11.4562 6.74685 10.9357 6.74685 10.41C6.74685 9.88434 6.85046 9.36383 7.05176 8.87824C7.25306 8.39264 7.54809 7.95149 7.92 7.58C8.29149 7.20809 8.73264 6.91306 9.21824 6.71176C9.70383 6.51046 10.2243 6.40685 10.75 6.40685C11.2757 6.40685 11.7962 6.51046 12.2818 6.71176C12.7673 6.91306 13.2085 7.20809 13.58 7.58L13.7 7.7C14.1714 8.16107 14.77 8.47037 15.4188 8.58801C16.0676 8.70564 16.7368 8.62623 17.34 8.36H17.5C18.0915 8.10647 18.596 7.68551 18.9514 7.14893C19.3067 6.61235 19.4974 5.98357 19.5 5.34V5C19.5 3.93913 19.9214 2.92172 20.6716 2.17157C21.4217 1.42143 22.4391 1 23.5 1C24.5609 1 25.5783 1.42143 26.3284 2.17157C27.0786 2.92172 27.5 3.93913 27.5 5V5.18C27.5026 5.82357 27.6933 6.45235 28.0486 6.98893C28.404 7.52551 28.9085 7.94647 29.5 8.2C30.1032 8.46623 30.7724 8.54565 31.4212 8.42801C32.07 8.31037 32.6686 8.00107 33.14 7.54L33.26 7.42C33.6315 7.04809 34.0726 6.75306 34.5582 6.55176C35.0438 6.35046 35.5643 6.24685 36.09 6.24685C36.6156 6.24685 37.1362 6.35046 37.6217 6.55176C38.1073 6.75306 38.5485 7.04809 38.92 7.42C39.2919 7.79149 39.5869 8.23264 39.7882 8.71824C39.9895 9.20383 40.0931 9.72434 40.0931 10.25C40.0931 10.7757 39.9895 11.2962 39.7882 11.7818C39.5869 12.2674 39.2919 12.7085 38.92 13.08L38.8 13.2C38.3389 13.6714 38.0296 14.27 37.912 14.9188C37.7943 15.5676 37.8738 16.2368 38.14 16.84V17C38.3935 17.5915 38.8145 18.096 39.3511 18.4514C39.8876 18.8067 40.5164 18.9974 41.16 19H41.5C42.5609 19 43.5783 19.4214 44.3284 20.1716C45.0786 20.9217 45.5 21.9391 45.5 23C45.5 24.0609 45.0786 25.0783 44.3284 25.8284C43.5783 26.5786 42.5609 27 41.5 27H41.32C40.6764 27.0026 40.0476 27.1933 39.5111 27.5486C38.9745 27.904 38.5535 28.4085 38.3 29V29Z" stroke="#23A6F0" stroke-width="2" stroke-linecap="round" stroke-linejoin="round"/>
</svg>
